<svg version="1.1" id="Layer_1" xmlns="http://www.w3.org/2000/svg" xmlns:xlink="http://www.w3.org/1999/xlink" x="0px" y="0px"
	 width="100%" viewBox="0 0 180 180" enable-background="new 0 0 180 180" xml:space="preserve">
<path fill="#050C12" opacity="1.000000" stroke="none" 
	d="
M0.999998,172.000000 
	C1.000000,115.072983 1.000000,58.145969 1.000000,1.000000 
	C57.687374,1.000000 114.375031,1.000000 171.632126,1.321849 
	C175.134384,4.429132 178.067184,7.214567 181.000000,10.000000 
	C181.000000,63.687561 181.000000,117.375122 180.677673,171.632355 
	C177.236893,175.134674 174.118439,178.067337 171.000000,181.000000 
	C117.645775,181.000000 64.291542,181.000000 10.367652,180.678223 
	C6.865324,177.570969 3.932660,174.785492 0.999998,172.000000 
M148.279343,143.990402 
	C157.304077,138.992569 164.729568,132.525192 167.228500,122.009537 
	C167.849838,119.394875 167.321320,116.506966 167.321320,112.622910 
	C158.020355,117.951683 154.050858,127.582069 143.546539,130.857697 
	C144.365784,126.750648 144.960754,124.054306 145.434769,121.336868 
	C146.745407,113.823280 148.600754,106.342964 149.135971,98.771393 
	C149.814819,89.168098 144.345291,84.155609 134.590332,83.831459 
	C126.184357,83.552139 119.586876,87.279922 113.519104,93.525909 
	C112.214851,84.984596 107.502106,80.364822 99.876457,79.064171 
	C92.321747,77.775597 86.567085,81.637909 81.594818,86.802155 
	C80.307701,84.570770 79.347115,82.618652 78.128319,80.843849 
	C73.654587,74.329292 69.275665,74.370094 65.162155,81.009567 
	C60.188118,89.038002 57.029922,97.705818 55.911594,107.147324 
	C55.531826,110.353523 55.202969,114.109695 53.378418,116.482208 
	C50.065655,120.789917 45.878246,124.539268 41.584316,127.923294 
	C39.804108,129.326279 36.190937,130.322266 34.551041,129.423615 
	C33.030289,128.590225 32.178211,124.854614 32.520203,122.625267 
	C33.475750,116.396233 35.629017,110.345581 36.507038,104.111488 
	C37.424183,97.599609 38.125664,90.883354 37.469887,84.403336 
	C37.177792,81.517006 33.726254,77.540367 30.963360,76.785080 
	C28.954090,76.235802 24.581610,79.565910 23.219995,82.184204 
	C14.209331,99.511078 11.902127,117.901665 16.711349,136.889801 
	C18.580677,144.270416 23.943132,147.317993 31.473118,146.487030 
	C38.942680,145.662750 44.926804,141.939240 50.210129,136.859711 
	C51.423611,135.693069 52.615570,134.504028 54.022755,133.123917 
	C54.797714,137.494049 55.092876,141.168823 56.214043,144.571411 
	C56.719646,146.105865 58.731194,147.935211 60.299358,148.197708 
	C69.238770,149.694107 77.528717,140.330002 74.746719,131.763763 
	C70.203407,117.774185 75.919647,106.717110 84.480530,96.550461 
	C85.743263,95.050873 88.918213,94.429466 91.031868,94.713867 
	C91.967636,94.839767 93.113342,98.260231 93.046837,100.145721 
	C92.747475,108.633072 91.839233,117.099525 91.564125,125.586929 
	C91.376221,131.383804 91.461800,137.261429 92.282295,142.979950 
	C92.567444,144.967377 95.239250,147.875793 97.141846,148.151779 
	C105.973862,149.432968 113.752739,140.553452 111.184090,132.040405 
	C107.688171,120.454147 112.200829,111.226234 118.724594,102.389175 
	C120.750526,99.644852 123.530975,97.934212 126.964302,99.380386 
	C130.579437,100.903145 129.728134,104.199089 129.370346,107.195175 
	C128.443954,114.952278 126.705421,122.730949 126.848114,130.472305 
	C127.138046,146.201645 132.735855,149.608261 148.279343,143.990402 
M47.488617,39.094658 
	C43.300175,33.120422 39.610542,32.182583 36.020535,36.179665 
	C30.352818,42.490051 28.914701,54.307434 32.588448,62.014721 
	C33.859013,64.680290 35.352036,65.081032 38.081184,64.512642 
	C47.518406,62.547153 55.683807,52.887772 47.488617,39.094658 
z"/>
<path fill="#000000" opacity="1.000000" stroke="none" 
	d="
M171.486572,181.000000 
	C174.118439,178.067337 177.236893,175.134674 180.677673,172.101013 
	C181.000000,174.923279 181.000000,177.846542 181.000000,181.000000 
	C177.993149,181.000000 174.983154,181.000000 171.486572,181.000000 
z"/>
<path fill="#000000" opacity="1.000000" stroke="none" 
	d="
M181.000000,9.508952 
	C178.067184,7.214567 175.134384,4.429132 172.100784,1.321849 
	C174.917358,1.000000 177.834702,1.000000 181.000000,1.000000 
	C181.000000,3.670005 181.000000,6.343954 181.000000,9.508952 
z"/>
<path fill="#000000" opacity="1.000000" stroke="none" 
	d="
M0.999998,172.491058 
	C3.932660,174.785492 6.865324,177.570969 9.898994,180.678223 
	C7.082646,181.000000 4.165292,181.000000 1.000000,181.000000 
	C1.000000,178.330002 1.000000,175.656052 0.999998,172.491058 
z"/>
<path fill="#E36F3E" opacity="1.000000" stroke="none" 
	d="
M147.920303,144.126236 
	C132.735855,149.608261 127.138046,146.201645 126.848114,130.472305 
	C126.705421,122.730949 128.443954,114.952278 129.370346,107.195175 
	C129.728134,104.199089 130.579437,100.903145 126.964302,99.380386 
	C123.530975,97.934212 120.750526,99.644852 118.724594,102.389175 
	C112.200829,111.226234 107.688171,120.454147 111.184090,132.040405 
	C113.752739,140.553452 105.973862,149.432968 97.141846,148.151779 
	C95.239250,147.875793 92.567444,144.967377 92.282295,142.979950 
	C91.461800,137.261429 91.376221,131.383804 91.564125,125.586929 
	C91.839233,117.099525 92.747475,108.633072 93.046837,100.145721 
	C93.113342,98.260231 91.967636,94.839767 91.031868,94.713867 
	C88.918213,94.429466 85.743263,95.050873 84.480530,96.550461 
	C75.919647,106.717110 70.203407,117.774185 74.746719,131.763763 
	C77.528717,140.330002 69.238770,149.694107 60.299358,148.197708 
	C58.731194,147.935211 56.719646,146.105865 56.214043,144.571411 
	C55.092876,141.168823 54.797714,137.494049 54.022755,133.123917 
	C52.615570,134.504028 51.423611,135.693069 50.210129,136.859711 
	C44.926804,141.939240 38.942680,145.662750 31.473118,146.487030 
	C23.943132,147.317993 18.580677,144.270416 16.711349,136.889801 
	C11.902127,117.901665 14.209331,99.511078 23.219995,82.184204 
	C24.581610,79.565910 28.954090,76.235802 30.963360,76.785080 
	C33.726254,77.540367 37.177792,81.517006 37.469887,84.403336 
	C38.125664,90.883354 37.424183,97.599609 36.507038,104.111488 
	C35.629017,110.345581 33.475750,116.396233 32.520203,122.625267 
	C32.178211,124.854614 33.030289,128.590225 34.551041,129.423615 
	C36.190937,130.322266 39.804108,129.326279 41.584316,127.923294 
	C45.878246,124.539268 50.065655,120.789917 53.378418,116.482208 
	C55.202969,114.109695 55.531826,110.353523 55.911594,107.147324 
	C57.029922,97.705818 60.188118,89.038002 65.162155,81.009567 
	C69.275665,74.370094 73.654587,74.329292 78.128319,80.843849 
	C79.347115,82.618652 80.307701,84.570770 81.594818,86.802155 
	C86.567085,81.637909 92.321747,77.775597 99.876457,79.064171 
	C107.502106,80.364822 112.214851,84.984596 113.519104,93.525909 
	C119.586876,87.279922 126.184357,83.552139 134.590332,83.831459 
	C144.345291,84.155609 149.814819,89.168098 149.135971,98.771393 
	C148.600754,106.342964 146.745407,113.823280 145.434769,121.336868 
	C144.960754,124.054306 144.365784,126.750648 143.546539,130.857697 
	C154.050858,127.582069 158.020355,117.951683 167.321320,112.622910 
	C167.321320,116.506966 167.849838,119.394875 167.228500,122.009537 
	C164.729568,132.525192 157.304077,138.992569 147.920303,144.126236 
z"/>
<path fill="#E36F3E" opacity="1.000000" stroke="none" 
	d="
M47.677826,39.425369 
	C55.683807,52.887772 47.518406,62.547153 38.081184,64.512642 
	C35.352036,65.081032 33.859013,64.680290 32.588448,62.014721 
	C28.914701,54.307434 30.352818,42.490051 36.020535,36.179665 
	C39.610542,32.182583 43.300175,33.120422 47.677826,39.425369 
z"/>
</svg>